<svg xmlns:inkscape="http://www.inkscape.org/namespaces/inkscape" xmlns:sodipodi="http://sodipodi.sourceforge.net/DTD/sodipodi-0.dtd" xmlns="http://www.w3.org/2000/svg" xmlns:svg="http://www.w3.org/2000/svg" xmlns:rdf="http://www.w3.org/1999/02/22-rdf-syntax-ns#" xmlns:cc="http://creativecommons.org/ns#" xmlns:dc="http://purl.org/dc/elements/1.1/" viewBox="0 0 256 256" version="1.1" fill="currentColor"><defs id="defs2"/><g inkscape:label="icon" inkscape:groupmode="layer" id="layer1"><path id="rect873" style="fill:none;stroke:currentColor;stroke-width:16;stroke-linecap:round;stroke-linejoin:round;stroke-miterlimit:4;stroke-dasharray:none;stroke-opacity:1" d="m 64,80 h 128 c 16,0 29.33333,16 32,32 l 16,96 c 2.66807,16.00842 -16,32 -32,32 H 48 C 32,240 13.33193,224.00842 16,208 L 32,112 C 34.666667,96 48,80 64,80 Z" sodipodi:nodetypes="sssssssss"/><path style="fill:none;stroke:currentColor;stroke-width:16;stroke-linecap:round;stroke-linejoin:round;stroke-miterlimit:4;stroke-dasharray:none;stroke-opacity:1" d="M 80,112 V 63.814079" id="path869" sodipodi:nodetypes="cc"/><path style="fill:none;stroke:currentColor;stroke-width:16;stroke-linecap:round;stroke-linejoin:round;stroke-miterlimit:4;stroke-dasharray:none;stroke-opacity:1" d="m 176,64 v 48" id="path871" sodipodi:nodetypes="cc"/><path style="fill:none;stroke:currentColor;stroke-width:16;stroke-linecap:round;stroke-linejoin:round;stroke-miterlimit:4;stroke-dasharray:none;stroke-opacity:1" d="M 19.090159,191.31828 H 236.90984" id="path879" sodipodi:nodetypes="cc"/><path id="path870" style="fill:none;stroke:currentColor;stroke-width:16;stroke-linecap:round;stroke-linejoin:round;stroke-miterlimit:4;stroke-dasharray:none" d="M 176,64 C 176,48 166.70076,30.94703 151.90703,22.405869 137.1133,13.86471 118.88668,13.86471 104.09296,22.40587 89.299233,30.947031 80.000002,48 80,64" sodipodi:nodetypes="cssc"/><rect style="stroke:none;stroke-width:16;fill:none" id="rect1359" width="80" height="16" x="16" y="240"/></g></svg>