<svg xmlns:dc="http://purl.org/dc/elements/1.1/" xmlns:cc="http://creativecommons.org/ns#" xmlns:rdf="http://www.w3.org/1999/02/22-rdf-syntax-ns#" xmlns:svg="http://www.w3.org/2000/svg" xmlns="http://www.w3.org/2000/svg" xmlns:sodipodi="http://sodipodi.sourceforge.net/DTD/sodipodi-0.dtd" xmlns:inkscape="http://www.inkscape.org/namespaces/inkscape" viewBox="0 0 256 256" version="1.1" fill="currentColor"><defs id="defs2"/><g inkscape:label="icon" inkscape:groupmode="layer" id="layer1"><path inkscape:connector-curvature="0" id="path932" d="M 239.98507,55.993592 A 111.98507,39.994664 0 0 1 128,95.988256 111.98507,39.994664 0 0 1 16.01493,55.993592 111.98507,39.994664 0 0 1 128,15.998927 111.98507,39.994664 0 0 1 239.98507,55.993592 Z" style="fill:none;stroke:currentColor;stroke-width:16;stroke-linecap:round;stroke-linejoin:round;stroke-miterlimit:4;stroke-dasharray:none"/><path inkscape:connector-curvature="0" id="path932-3" d="m 239.98507,199.97441 a 111.98507,39.994664 0 0 1 -55.99253,34.63639 111.98507,39.994664 0 0 1 -111.985079,0 111.98507,39.994664 0 0 1 -55.992531,-34.6364" style="fill:none;stroke:currentColor;stroke-width:16;stroke-linecap:round;stroke-linejoin:round;stroke-miterlimit:4;stroke-dasharray:none"/><path inkscape:connector-curvature="0" id="path932-3-5" d="m 239.98507,151.9808 a 111.98507,39.994664 0 0 1 -55.99253,34.6364 111.98507,39.994664 0 0 1 -111.985079,-1e-5 A 111.98507,39.994664 0 0 1 16.01493,151.9808" style="fill:none;stroke:currentColor;stroke-width:16;stroke-linecap:round;stroke-linejoin:round;stroke-miterlimit:4;stroke-dasharray:none"/><path inkscape:connector-curvature="0" id="path932-3-5-6" d="m 239.98507,103.9872 a 111.98507,39.994664 0 0 1 -55.99253,34.6364 111.98507,39.994664 0 0 1 -111.985079,0 111.98507,39.994664 0 0 1 -55.992531,-34.6364" style="fill:none;stroke:currentColor;stroke-width:16;stroke-linecap:round;stroke-linejoin:round;stroke-miterlimit:4;stroke-dasharray:none"/><path inkscape:connector-curvature="0" sodipodi:nodetypes="cc" id="path979" d="M 16.01493,55.99377 V 199.97441" style="fill:none;stroke:currentColor;stroke-width:16;stroke-linecap:round;stroke-linejoin:round;stroke-miterlimit:4;stroke-dasharray:none;stroke-opacity:1"/><path inkscape:connector-curvature="0" sodipodi:nodetypes="cc" id="path981" d="M 239.98507,55.993592 V 199.97441" style="fill:none;stroke:currentColor;stroke-width:16;stroke-linecap:round;stroke-linejoin:round;stroke-miterlimit:4;stroke-dasharray:none;stroke-opacity:1"/></g></svg>