<svg xmlns:dc="http://purl.org/dc/elements/1.1/" xmlns:cc="http://creativecommons.org/ns#" xmlns:rdf="http://www.w3.org/1999/02/22-rdf-syntax-ns#" xmlns:svg="http://www.w3.org/2000/svg" xmlns="http://www.w3.org/2000/svg" xmlns:sodipodi="http://sodipodi.sourceforge.net/DTD/sodipodi-0.dtd" xmlns:inkscape="http://www.inkscape.org/namespaces/inkscape" viewBox="0 0 256 256" version="1.1" fill="currentColor"><defs id="defs2"/><g inkscape:label="icon" inkscape:groupmode="layer" id="layer1"><path inkscape:connector-curvature="0" sodipodi:nodetypes="cc" id="path876" d="m 63.998705,64.001121 c 0,64.001289 -16.00032,48.000969 -16.00032,96.001929" style="fill:none;stroke:currentColor;stroke-width:16;stroke-linecap:round;stroke-linejoin:round;stroke-miterlimit:4;stroke-dasharray:none;stroke-opacity:1"/><path inkscape:connector-curvature="0" sodipodi:nodetypes="cc" d="m 192.00129,64.001121 c 0,-16.000322 0,-22.762857 -16.00032,-32.000645" style="fill:none;stroke:currentColor;stroke-width:16;stroke-linecap:round;stroke-linejoin:round;stroke-miterlimit:4;stroke-dasharray:none;stroke-opacity:1" id="path886"/><path inkscape:connector-curvature="0" sodipodi:nodetypes="cc" id="path932" d="m 128,48.000796 v 32.00065" style="fill:none;stroke:currentColor;stroke-width:16;stroke-linecap:round;stroke-linejoin:round;stroke-miterlimit:4;stroke-dasharray:none;stroke-opacity:1"/><path inkscape:connector-curvature="0" sodipodi:nodetypes="ccc" id="path878" d="m 79.99903,32.000476 c 0,0 32.00064,-16.000321 48.00097,-16.000321 16.00032,0 48.00097,16.000321 48.00097,16.000321" style="fill:none;stroke:currentColor;stroke-width:16;stroke-linecap:round;stroke-linejoin:round;stroke-miterlimit:4;stroke-dasharray:none;stroke-opacity:1"/><path inkscape:connector-curvature="0" sodipodi:nodetypes="cc" id="path876-3" d="m 192.00129,64.001121 c 0,64.001289 16.00032,48.000969 16.00032,96.001929" style="fill:none;stroke:currentColor;stroke-width:16;stroke-linecap:round;stroke-linejoin:round;stroke-miterlimit:4;stroke-dasharray:none;stroke-opacity:1"/><path style="fill:none;stroke:currentColor;stroke-width:16;stroke-linecap:round;stroke-linejoin:round;stroke-miterlimit:4;stroke-dasharray:none" d="m 208.00161,160.00305 a 80.00161,80.00161 0 0 1 -40.00081,69.28343 80.00161,80.00161 0 0 1 -80.001607,0 80.00161,80.00161 0 0 1 -40.000803,-69.28343" id="path912"/><path inkscape:connector-curvature="0" sodipodi:nodetypes="cc" d="m 63.998705,64.001125 c 0,-16.000326 2e-6,-22.762857 16.000325,-32.000649" style="fill:none;stroke:currentColor;stroke-width:16;stroke-linecap:round;stroke-linejoin:round;stroke-miterlimit:4;stroke-dasharray:none;stroke-opacity:1" id="path886-6"/></g></svg>