<svg xmlns:dc="http://purl.org/dc/elements/1.1/" xmlns:cc="http://creativecommons.org/ns#" xmlns:rdf="http://www.w3.org/1999/02/22-rdf-syntax-ns#" xmlns:svg="http://www.w3.org/2000/svg" xmlns="http://www.w3.org/2000/svg" xmlns:sodipodi="http://sodipodi.sourceforge.net/DTD/sodipodi-0.dtd" xmlns:inkscape="http://www.inkscape.org/namespaces/inkscape" viewBox="0 0 256 256" version="1.1" inkscape:version="0.92.3 (2405546, 2018-03-11)" sodipodi:docname="gala-store.svg" inkscape:export-xdpi="96" inkscape:export-ydpi="96" fill="currentColor"><defs id="defs2"/><g inkscape:label="icon" inkscape:groupmode="layer" id="layer1"><path style="fill:none;stroke:currentColor;stroke-width:16;stroke-linecap:round;stroke-linejoin:round;stroke-miterlimit:4;stroke-dasharray:none;stroke-opacity:1" d="M 48.000545,207.99268 V 128" id="path876" sodipodi:nodetypes="cc" inkscape:connector-curvature="0"/><path style="fill:none;stroke:currentColor;stroke-width:16;stroke-linecap:round;stroke-linejoin:round;stroke-miterlimit:4;stroke-dasharray:none;stroke-opacity:1" d="M 207.99947,207.99946 V 127.8564" id="path876-3" sodipodi:nodetypes="cc" inkscape:connector-curvature="0"/><path style="fill:none;stroke:currentColor;stroke-width:16;stroke-linecap:round;stroke-linejoin:round;stroke-miterlimit:4;stroke-dasharray:none;stroke-opacity:1" d="M 32.000626,16.00074 H 223.99935" id="path1152" sodipodi:nodetypes="cc" inkscape:connector-curvature="0"/><path style="fill:none;stroke:currentColor;stroke-width:16;stroke-linecap:round;stroke-linejoin:round;stroke-miterlimit:4;stroke-dasharray:none" d="m 183.99963,100.00018 a 27.999813,27.999813 0 0 1 -13.99991,24.24855 27.999813,27.999813 0 0 1 -27.99981,0 A 27.999813,27.999813 0 0 1 128,100.00018" id="path1115"/><path style="fill:none;stroke:currentColor;stroke-width:16;stroke-linecap:round;stroke-linejoin:round;stroke-miterlimit:4;stroke-dasharray:none" d="m 239.99926,100.00018 a 27.999813,27.999813 0 0 1 -13.9999,24.24855 27.999813,27.999813 0 0 1 -27.99982,0 27.999813,27.999813 0 0 1 -13.9999,-24.24855" id="path1115-9"/><path style="fill:none;stroke:currentColor;stroke-width:16;stroke-linecap:round;stroke-linejoin:round;stroke-miterlimit:4;stroke-dasharray:none" d="m 72.000366,100.00067 a 27.999813,27.999813 0 0 1 -13.999907,24.24855 27.999813,27.999813 0 0 1 -27.999813,0 27.999813,27.999813 0 0 1 -13.999906,-24.24855" id="path1115-3"/><path style="fill:none;stroke:currentColor;stroke-width:16;stroke-linecap:round;stroke-linejoin:round;stroke-miterlimit:4;stroke-dasharray:none" d="m 128,100.00067 a 27.999813,27.999813 0 0 1 -13.99991,24.24855 27.999813,27.999813 0 0 1 -27.999814,0 27.999813,27.999813 0 0 1 -13.999906,-24.24855" id="path1115-9-6"/><path style="fill:none;stroke:currentColor;stroke-width:16;stroke-linecap:butt;stroke-linejoin:miter;stroke-miterlimit:4;stroke-dasharray:none;stroke-opacity:1" d="M 16.000734,100.00252 32.000626,16.00074" id="path1150" inkscape:connector-curvature="0"/><path style="fill:none;stroke:currentColor;stroke-width:16;stroke-linecap:butt;stroke-linejoin:miter;stroke-miterlimit:4;stroke-dasharray:none;stroke-opacity:1" d="m 223.99935,16.00074 15.99989,83.99945" id="path1153" inkscape:connector-curvature="0"/><path style="fill:none;stroke:currentColor;stroke-width:16;stroke-linecap:butt;stroke-linejoin:miter;stroke-miterlimit:4;stroke-dasharray:none;stroke-opacity:1" d="M 183.99963,100.00108 175.99967,16.00074" id="path1155" inkscape:connector-curvature="0"/><path style="fill:none;stroke:currentColor;stroke-width:16;stroke-linecap:butt;stroke-linejoin:miter;stroke-miterlimit:4;stroke-dasharray:none;stroke-opacity:1" d="M 72.000386,100.00067 80.000307,16.00074" id="path1157" inkscape:connector-curvature="0"/><path style="fill:none;stroke:currentColor;stroke-width:16;stroke-linecap:butt;stroke-linejoin:miter;stroke-miterlimit:4;stroke-dasharray:none;stroke-opacity:1" d="M 127.99999,100.00093 V 16.00074" id="path1159" inkscape:connector-curvature="0"/><path style="fill:none;stroke:currentColor;stroke-width:16;stroke-linecap:round;stroke-linejoin:round;stroke-miterlimit:4;stroke-dasharray:none;stroke-opacity:1" d="M 32.000626,191.99958 H 223.99935" id="path1161" inkscape:connector-curvature="0"/><path style="fill:none;stroke:currentColor;stroke-width:16;stroke-linecap:butt;stroke-linejoin:miter;stroke-miterlimit:4;stroke-dasharray:none;stroke-opacity:1" d="M 80.000307,239.99926 H 175.99967" id="path882" sodipodi:nodetypes="cc" inkscape:connector-curvature="0"/><path style="fill:none;stroke:currentColor;stroke-width:16;stroke-linecap:round;stroke-linejoin:round;stroke-miterlimit:4;stroke-dasharray:none;stroke-opacity:1" d="m 207.99944,207.99947 a 31.999786,31.999786 0 0 1 -31.99979,31.99978" id="path886"/><path transform="scale(-1,1)" style="fill:none;stroke:currentColor;stroke-width:16;stroke-linecap:round;stroke-linejoin:round;stroke-miterlimit:4;stroke-dasharray:none;stroke-opacity:1" d="M -48.000534,207.99947 A 31.999786,31.999786 0 0 1 -80.00032,239.99925" id="path886-3"/></g></svg>